<svg xmlns="http://www.w3.org/2000/svg" width="965" height="217" viewBox="0 0 965 217" fill="none">
<path d="M183.237 58.1552C183.248 48.9551 175.722 41.4859 166.422 41.4741C161.95 41.4663 157.661 43.2207 154.499 46.345L118.791 81.6695C112.236 88.1928 112.236 98.7313 118.791 105.255C125.385 111.739 136.034 111.739 142.628 105.255L149.548 98.4094V156.691C149.575 165.887 157.106 173.333 166.402 173.36C175.698 173.333 183.229 165.887 183.256 156.691L183.237 58.1552Z" fill="url(#paint0_linear_1849_8491)"/>
<path fill-rule="evenodd" clip-rule="evenodd" d="M33.8301 58.1558C33.8103 48.9557 41.3328 41.4787 50.6329 41.4551C55.1163 41.4434 59.4211 43.2057 62.5912 46.3456L98.2996 81.6702C104.858 88.1934 104.858 98.7319 98.2996 105.255C91.7055 111.739 81.0525 111.739 74.4583 105.255L67.5428 98.414V156.692C67.515 165.888 59.9845 173.333 50.6884 173.361C41.3924 173.337 33.8579 165.888 33.8301 156.692V58.1558Z" fill="#FABF00"/>
<path d="M878.262 169.824C876.924 169.824 875.83 169.398 874.979 168.547C874.129 167.696 873.703 166.602 873.703 165.265V46.7456C873.703 45.4084 874.129 44.3144 874.979 43.4635C875.83 42.6126 876.924 42.1871 878.262 42.1871H898.501C899.838 42.1871 900.932 42.6126 901.783 43.4635C902.634 44.3144 903.059 45.4084 903.059 46.7456V145.39H959.584C960.921 145.39 962.015 145.816 962.866 146.667C963.717 147.518 964.143 148.612 964.143 149.949V165.265C964.143 166.602 963.717 167.696 962.866 168.547C962.015 169.398 960.921 169.824 959.584 169.824H878.262Z" fill="white"/>
<path d="M730.55 169.824C729.456 169.824 728.544 169.459 727.815 168.729C727.085 167.879 726.721 166.967 726.721 165.994C726.721 165.387 726.781 164.84 726.903 164.353L770.299 47.1103C770.664 45.7731 771.393 44.6183 772.487 43.6458C773.581 42.6734 775.101 42.1871 777.046 42.1871H800.385C802.33 42.1871 803.85 42.6734 804.944 43.6458C806.038 44.6183 806.767 45.7731 807.132 47.1103L850.528 164.353C850.65 164.84 850.71 165.387 850.71 165.994C850.71 166.967 850.346 167.879 849.616 168.729C848.887 169.459 847.975 169.824 846.881 169.824H827.918C826.095 169.824 824.758 169.398 823.907 168.547C823.056 167.696 822.509 166.906 822.266 166.177L814.425 145.755H763.006L755.165 166.177C754.922 166.906 754.375 167.696 753.524 168.547C752.673 169.398 751.336 169.824 749.513 169.824H730.55ZM769.752 122.233H807.496L788.716 69.7201L769.752 122.233Z" fill="white"/>
<path d="M664.011 169.824C662.674 169.824 661.579 169.398 660.729 168.547C659.878 167.696 659.452 166.602 659.452 165.265V67.5321H626.267C625.051 67.5321 624.018 67.1066 623.167 66.2557C622.316 65.4048 621.891 64.3715 621.891 63.156V46.7456C621.891 45.4084 622.316 44.3144 623.167 43.4635C624.018 42.6126 625.051 42.1871 626.267 42.1871H721.812C723.149 42.1871 724.243 42.6126 725.094 43.4635C725.945 44.3144 726.37 45.4084 726.37 46.7456V63.156C726.37 64.3715 725.945 65.4048 725.094 66.2557C724.243 67.1066 723.149 67.5321 721.812 67.5321H688.809V165.265C688.809 166.602 688.383 167.696 687.532 168.547C686.681 169.398 685.587 169.824 684.25 169.824H664.011Z" fill="white"/>
<path d="M572.014 169.824C570.676 169.824 569.582 169.398 568.731 168.547C567.881 167.696 567.455 166.602 567.455 165.265V46.7456C567.455 45.4084 567.881 44.3144 568.731 43.4635C569.582 42.6126 570.676 42.1871 572.014 42.1871H592.618C593.955 42.1871 595.049 42.6126 595.9 43.4635C596.751 44.3144 597.176 45.4084 597.176 46.7456V165.265C597.176 166.602 596.751 167.696 595.9 168.547C595.049 169.398 593.955 169.824 592.618 169.824H572.014Z" fill="white"/>
<path d="M481.946 171.647C470.52 171.647 460.734 169.763 452.59 165.994C444.567 162.104 438.307 156.513 433.809 149.219C429.433 141.804 427.063 132.87 426.698 122.416C426.576 117.189 426.516 111.597 426.516 105.641C426.516 99.6842 426.576 94.0317 426.698 88.6831C427.063 78.4722 429.433 69.7808 433.809 62.6089C438.307 55.4369 444.628 49.9668 452.772 46.1985C461.038 42.3086 470.763 40.3636 481.946 40.3636C490.942 40.3636 498.843 41.5185 505.65 43.8281C512.457 46.1377 518.171 49.1766 522.79 52.9449C527.409 56.5917 530.934 60.6031 533.365 64.9792C535.797 69.3553 537.073 73.5491 537.195 77.5605C537.195 78.6546 536.83 79.627 536.101 80.4779C535.371 81.2073 534.399 81.572 533.183 81.572H510.573C509.358 81.572 508.385 81.3288 507.656 80.8426C507.048 80.3564 506.501 79.627 506.015 78.6546C505.164 76.4665 503.766 74.2785 501.821 72.0904C499.998 69.7808 497.506 67.8359 494.345 66.2556C491.185 64.6753 487.052 63.8852 481.946 63.8852C474.288 63.8852 468.21 65.8909 463.713 69.9023C459.336 73.9138 456.966 80.4779 456.601 89.5948C456.237 100.049 456.237 110.685 456.601 121.504C456.966 130.985 459.397 137.793 463.895 141.926C468.514 146.059 474.653 148.125 482.311 148.125C487.295 148.125 491.732 147.274 495.622 145.572C499.633 143.749 502.794 140.953 505.103 137.185C507.413 133.417 508.568 128.615 508.568 122.78V118.222H488.693C487.477 118.222 486.444 117.796 485.593 116.945C484.742 115.973 484.317 114.879 484.317 113.663V101.994C484.317 100.657 484.742 99.5626 485.593 98.7117C486.444 97.8608 487.477 97.4353 488.693 97.4353H533.365C534.703 97.4353 535.797 97.8608 536.648 98.7117C537.498 99.5626 537.924 100.657 537.924 101.994V121.869C537.924 132.323 535.614 141.257 530.995 148.672C526.497 156.087 519.994 161.801 511.485 165.812C503.097 169.702 493.251 171.647 481.946 171.647Z" fill="white"/>
<path d="M371.348 169.824C370.01 169.824 368.916 169.398 368.065 168.547C367.215 167.696 366.789 166.602 366.789 165.265V46.7456C366.789 45.4084 367.215 44.3144 368.065 43.4635C368.916 42.6126 370.01 42.1871 371.348 42.1871H391.952C393.289 42.1871 394.383 42.6126 395.234 43.4635C396.085 44.3144 396.51 45.4084 396.51 46.7456V165.265C396.51 166.602 396.085 167.696 395.234 168.547C394.383 169.398 393.289 169.824 391.952 169.824H371.348Z" fill="white"/>
<path d="M234.781 169.824C233.444 169.824 232.35 169.398 231.499 168.547C230.648 167.696 230.223 166.602 230.223 165.265V46.7456C230.223 45.4084 230.648 44.3144 231.499 43.4635C232.35 42.6126 233.444 42.1871 234.781 42.1871H280.548C292.704 42.1871 302.854 44.1321 310.998 48.0219C319.143 51.7903 325.342 57.3819 329.597 64.797C333.973 72.0905 336.282 81.1466 336.526 91.9653C336.647 97.3139 336.708 101.994 336.708 106.005C336.708 110.017 336.647 114.636 336.526 119.863C336.161 131.168 333.912 140.528 329.779 147.943C325.646 155.358 319.568 160.889 311.545 164.536C303.522 168.061 293.494 169.824 281.46 169.824H234.781ZM259.214 146.302H280.548C286.626 146.302 291.61 145.39 295.5 143.567C299.389 141.743 302.246 138.887 304.069 134.997C306.014 130.986 307.048 125.819 307.169 119.498C307.291 115.973 307.351 112.813 307.351 110.017C307.473 107.221 307.473 104.425 307.351 101.629C307.351 98.8334 307.291 95.7336 307.169 92.33C306.926 83.2131 304.556 76.5274 300.058 72.2729C295.682 67.8967 288.875 65.7087 279.636 65.7087H259.214V146.302Z" fill="white"/>
<defs>
<linearGradient id="paint0_linear_1849_8491" x1="148.565" y1="158.956" x2="148.565" y2="8.69122" gradientUnits="userSpaceOnUse">
<stop stop-color="#007B82"/>
<stop offset="1" stop-color="#009C4D"/>
</linearGradient>
</defs>
</svg>
